<?xml version="1.0" encoding="utf-8"?>
<!-- Generator: Adobe Illustrator 24.0.1, SVG Export Plug-In . SVG Version: 6.00 Build 0)  -->
<svg version="1.1" id="Layer_1" xmlns="http://www.w3.org/2000/svg" xmlns:xlink="http://www.w3.org/1999/xlink" x="0px" y="0px"
	 viewBox="0 0 600 600" style="enable-background:new 0 0 600 600;" xml:space="preserve">
<style type="text/css">
	.st0{stroke:#000000;stroke-miterlimit:10;}
	.st1{fill:none;stroke:#808080;stroke-width:3;stroke-miterlimit:10;}
	.st2{fill:none;stroke:#808080;stroke-width:3;stroke-miterlimit:10;stroke-dasharray:12,12;}
	.st3{fill:none;stroke:#808080;stroke-width:3;stroke-miterlimit:10;stroke-dasharray:12;}
</style>
<g>
	<path d="M0.5,134.5v-88c-0.2-5.3,0.2-18.8,10.2-30.6C22.8,1.6,40.2,0.5,45.3,0.5c0.4,0,0.8,0,1,0c0.2,0,0.4,0,0.6,0
		c0.2,0,0.4,0,0.6,0l87.1,0v5.9h-88c-0.2,0-0.6,0-1.1,0c-4.4,0-19.6,1-30.2,13.5C6.6,30.2,6.1,41.9,6.4,46.5l0,88H0.5z"/>
	<path d="M45.3,1L45.3,1c0.4,0,0.7,0,0.9,0c0.2,0,0.4,0,0.6,0c0.2,0,0.4,0,0.6,0H134v4.9l-87.4,0c-0.2,0-0.6,0-1.1,0
		c-4.5,0-19.9,1-30.6,13.7c-8.8,10.4-9.2,22.4-9,27V134H1l0-87.5C0.7,41.3,1.2,27.9,11,16.3C23,2.1,40.3,1,45.3,1 M45.3,0
		c-5.2,0-22.7,1.1-35,15.7C-0.5,28.4-0.2,43,0,46.5V135h6.9V46.5c-0.1-3-0.4-15.5,8.8-26.3C26.1,7.8,41,6.8,45.5,6.8
		c0.5,0,0.8,0,1.1,0H135V0H47.4c-0.2,0-0.3,0-0.5,0c-0.2,0-0.4,0-0.6,0C46,0,45.7,0,45.3,0L45.3,0z"/>
</g>
<path class="st0" d="M45.5,39.5"/>
<g>
	<path d="M466.1,594.3l88-0.8c0.2,0,0.4,0,0.8,0c4.4,0,19.8-1,30.4-13.8c8.6-10.4,8.9-22.2,8.6-26.7l-0.8-88l5.9-0.1l0.8,88
		c0.3,5.3-0.1,18.8-9.9,30.7c-12.1,14.7-29.7,15.8-34.8,15.8c-0.3,0-0.5,0-0.7,0c-0.1,0-0.3,0-0.5,0c-0.2,0-0.4,0-0.6,0l-87.1,0.8
		L466.1,594.3z"/>
	<path d="M598.5,465.4l0.8,87.5c0.3,5.2-0.1,18.6-9.8,30.3c-12,14.5-29.4,15.6-34.4,15.6c-0.2,0-0.4,0-0.6,0c-0.2,0-0.4,0-0.6,0
		c0,0,0,0,0,0c-0.2,0-0.4,0-0.6,0l-86.6,0.8l0-4.9l87.4-0.8c0.2,0,0.4,0,0.8,0c4.5,0,20-1,30.8-14c8.7-10.5,9-22.4,8.8-27l-0.8-87.5
		L598.5,465.4 M599.5,464.4l-6.9,0.1l0.8,88.5c0.2,3,0.5,15.5-8.5,26.4c-10.6,12.8-26,13.6-30,13.6c-0.3,0-0.6,0-0.8,0l-88.5,0.8
		l0.1,6.9l87.6-0.8c0.2,0,0.3,0,0.5,0c0,0,0,0,0,0c0.2,0,0.4,0,0.5,0c0.2,0,0.4,0,0.7,0c4.7,0,22.7-1,35.2-16
		c10.6-12.8,10.2-27.5,10-31L599.5,464.4L599.5,464.4z"/>
</g>
<g>
	<path d="M593.9,134.7v-88c0.2-4.6-0.2-16.4-8.9-26.6C574.4,7.5,559.2,6.5,554.8,6.5c-0.5,0-0.9,0-1.1,0l-88,0V0.7h87.1
		c0.1,0,0.3,0,0.5,0c0.2,0,0.4,0,0.6,0c0.2,0,0.5,0,0.9,0c5,0,22.5,1.1,34.6,15.5c9.9,11.8,10.4,25.3,10.2,30.5l0,88H593.9z"/>
	<path d="M555,1.1c5,0,22.2,1.1,34.2,15.3c9.8,11.6,10.3,25,10.1,30.2v87.5h-4.9l0-87.4c0.2-4.7-0.2-16.6-9-27
		C574.7,7,559.3,6,554.8,6c-0.5,0-0.9,0-1.1,0h-87.5V1.2h86.6c0.2,0,0.4,0,0.6,0c0.2,0,0.4,0,0.6,0C554.3,1.2,554.6,1.1,555,1.1
		 M555,0.1c-0.4,0-0.8,0-1,0c-0.2,0-0.4,0-0.6,0c-0.2,0-0.3,0-0.5,0h-87.6V7h88.5c0.2,0,0.6,0,1.1,0c4.4,0,19.3,0.9,29.8,13.4
		c9.2,10.9,8.9,23.3,8.8,26.3v88.5h6.9V46.7c0.2-3.5,0.5-18.2-10.3-30.9C577.7,1.2,560.2,0.1,555,0.1L555,0.1z"/>
</g>
<g>
	<path d="M47,598.4c-0.1,0-0.3,0-0.5,0c0,0,0,0,0,0c-0.2,0-0.4,0-0.6,0c-0.1,0-0.4,0-0.6,0c-5.1,0-22.6-1.1-34.8-15.8
		C0.6,570.8,0.2,557.3,0.5,552l0.8-88l5.9,0.1l-0.8,88c-0.3,4.6,0.1,16.4,8.6,26.7c10.6,12.8,25.9,13.8,30.4,13.8c0.4,0,0.6,0,0.8,0
		l88,0.8l-0.1,5.9L47,598.4z"/>
	<path d="M1.8,464.5l4.9,0L5.9,552c-0.3,4.7,0.1,16.6,8.8,27.1c10.8,13,26.3,14,30.8,14c0.4,0,0.6,0,0.8,0l87.5,0.8l0,4.9L47,597.9
		c-0.2,0-0.4,0-0.6,0c-0.2,0-0.4,0-0.6,0c-0.2,0-0.4,0-0.6,0c-5,0-22.4-1.1-34.4-15.6C1.1,570.6,0.7,557.2,1,552L1.8,464.5
		 M0.8,463.5L0,552c-0.2,3.5-0.6,18.1,10,31c12.4,15,30.4,16,35.2,16c0.3,0,0.5,0,0.7,0c0.2,0,0.4,0,0.5,0c0,0,0,0,0,0
		c0.2,0,0.3,0,0.5,0l87.6,0.8l0.1-6.9l-88.5-0.8c-0.2,0-0.4,0-0.8,0c-4,0-19.4-0.8-30-13.6C6.3,567.5,6.7,555,6.9,552l0.8-88.5
		L0.8,463.5L0.8,463.5z"/>
</g>
<g>
	<g>
		<line class="st1" x1="300.5" y1="0.5" x2="300.5" y2="6.5"/>
		<line class="st2" x1="300.5" y1="18.5" x2="300.5" y2="588.5"/>
		<line class="st1" x1="300.5" y1="594.5" x2="300.5" y2="600.5"/>
	</g>
</g>
<line class="st3" x1="-0.5" y1="300.5" x2="600.5" y2="300.5"/>
</svg>
